<mxfile host="app.diagrams.net" modified="2023-05-21T11:03:09.586Z" agent="Mozilla/5.0 (Windows NT 10.0; Win64; x64) AppleWebKit/537.36 (KHTML, like Gecko) Chrome/113.0.0.0 Safari/537.36" etag="KSxiExmY-o7eL3Zuc7HF" version="21.3.2" type="device">
  <diagram name="Page-1" id="DfziZX6r8MNCm4EyHD4p">
    <mxGraphModel dx="2100" dy="1154" grid="1" gridSize="4" guides="1" tooltips="1" connect="1" arrows="1" fold="1" page="1" pageScale="1" pageWidth="1654" pageHeight="2336" math="0" shadow="0">
      <root>
        <mxCell id="0" />
        <mxCell id="1" parent="0" />
        <mxCell id="bqFwXBlh8Nr7cZk0w_HN-1" value="User" style="rounded=0;whiteSpace=wrap;html=1;fillColor=#1ba1e2;fontColor=#ffffff;strokeColor=#006EAF;" vertex="1" parent="1">
          <mxGeometry x="702" y="340" width="120" height="60" as="geometry" />
        </mxCell>
        <mxCell id="bqFwXBlh8Nr7cZk0w_HN-2" value="User_ID" style="ellipse;whiteSpace=wrap;html=1;fillColor=#1ba1e2;fontColor=#ffffff;strokeColor=#006EAF;" vertex="1" parent="1">
          <mxGeometry x="512" y="350" width="80" height="40" as="geometry" />
        </mxCell>
        <mxCell id="bqFwXBlh8Nr7cZk0w_HN-3" value="" style="endArrow=none;html=1;rounded=0;exitX=1;exitY=0.5;exitDx=0;exitDy=0;entryX=0;entryY=0.5;entryDx=0;entryDy=0;" edge="1" parent="1" source="bqFwXBlh8Nr7cZk0w_HN-2" target="bqFwXBlh8Nr7cZk0w_HN-1">
          <mxGeometry width="50" height="50" relative="1" as="geometry">
            <mxPoint x="742" y="400" as="sourcePoint" />
            <mxPoint x="792" y="350" as="targetPoint" />
          </mxGeometry>
        </mxCell>
        <mxCell id="bqFwXBlh8Nr7cZk0w_HN-5" value="" style="endArrow=none;html=1;rounded=0;exitX=1;exitY=1;exitDx=0;exitDy=0;entryX=0;entryY=0.25;entryDx=0;entryDy=0;" edge="1" source="bqFwXBlh8Nr7cZk0w_HN-6" parent="1" target="bqFwXBlh8Nr7cZk0w_HN-1">
          <mxGeometry width="50" height="50" relative="1" as="geometry">
            <mxPoint x="832" y="370" as="sourcePoint" />
            <mxPoint x="792" y="310" as="targetPoint" />
          </mxGeometry>
        </mxCell>
        <mxCell id="bqFwXBlh8Nr7cZk0w_HN-6" value="Pic" style="ellipse;whiteSpace=wrap;html=1;" vertex="1" parent="1">
          <mxGeometry x="512" y="290" width="80" height="40" as="geometry" />
        </mxCell>
        <mxCell id="bqFwXBlh8Nr7cZk0w_HN-7" value="Name" style="ellipse;whiteSpace=wrap;html=1;" vertex="1" parent="1">
          <mxGeometry x="542" y="230" width="80" height="40" as="geometry" />
        </mxCell>
        <mxCell id="bqFwXBlh8Nr7cZk0w_HN-8" value="" style="endArrow=none;html=1;rounded=0;exitX=1;exitY=1;exitDx=0;exitDy=0;entryX=0;entryY=0;entryDx=0;entryDy=0;" edge="1" source="bqFwXBlh8Nr7cZk0w_HN-7" parent="1" target="bqFwXBlh8Nr7cZk0w_HN-1">
          <mxGeometry width="50" height="50" relative="1" as="geometry">
            <mxPoint x="922" y="360" as="sourcePoint" />
            <mxPoint x="822" y="330" as="targetPoint" />
          </mxGeometry>
        </mxCell>
        <mxCell id="bqFwXBlh8Nr7cZk0w_HN-9" value="Username" style="ellipse;whiteSpace=wrap;html=1;" vertex="1" parent="1">
          <mxGeometry x="622" y="190" width="80" height="40" as="geometry" />
        </mxCell>
        <mxCell id="bqFwXBlh8Nr7cZk0w_HN-10" value="" style="endArrow=none;html=1;rounded=0;exitX=0.5;exitY=1;exitDx=0;exitDy=0;entryX=0.25;entryY=0;entryDx=0;entryDy=0;" edge="1" source="bqFwXBlh8Nr7cZk0w_HN-9" parent="1" target="bqFwXBlh8Nr7cZk0w_HN-1">
          <mxGeometry width="50" height="50" relative="1" as="geometry">
            <mxPoint x="1012" y="360" as="sourcePoint" />
            <mxPoint x="852" y="340" as="targetPoint" />
          </mxGeometry>
        </mxCell>
        <mxCell id="bqFwXBlh8Nr7cZk0w_HN-11" value="Bio" style="ellipse;whiteSpace=wrap;html=1;" vertex="1" parent="1">
          <mxGeometry x="912" y="230" width="80" height="40" as="geometry" />
        </mxCell>
        <mxCell id="bqFwXBlh8Nr7cZk0w_HN-12" value="" style="endArrow=none;html=1;rounded=0;exitX=0;exitY=1;exitDx=0;exitDy=0;entryX=1;entryY=0;entryDx=0;entryDy=0;" edge="1" source="bqFwXBlh8Nr7cZk0w_HN-11" parent="1" target="bqFwXBlh8Nr7cZk0w_HN-1">
          <mxGeometry width="50" height="50" relative="1" as="geometry">
            <mxPoint x="1092" y="400" as="sourcePoint" />
            <mxPoint x="872" y="380" as="targetPoint" />
          </mxGeometry>
        </mxCell>
        <mxCell id="bqFwXBlh8Nr7cZk0w_HN-13" value="Password" style="ellipse;whiteSpace=wrap;html=1;" vertex="1" parent="1">
          <mxGeometry x="972" y="290" width="80" height="40" as="geometry" />
        </mxCell>
        <mxCell id="bqFwXBlh8Nr7cZk0w_HN-14" value="" style="endArrow=none;html=1;rounded=0;exitX=0;exitY=0.5;exitDx=0;exitDy=0;entryX=1;entryY=0.25;entryDx=0;entryDy=0;" edge="1" source="bqFwXBlh8Nr7cZk0w_HN-13" parent="1" target="bqFwXBlh8Nr7cZk0w_HN-1">
          <mxGeometry width="50" height="50" relative="1" as="geometry">
            <mxPoint x="1162" y="440" as="sourcePoint" />
            <mxPoint x="892" y="380" as="targetPoint" />
          </mxGeometry>
        </mxCell>
        <mxCell id="bqFwXBlh8Nr7cZk0w_HN-17" value="" style="endArrow=none;html=1;rounded=0;exitX=0.5;exitY=1;exitDx=0;exitDy=0;entryX=0.5;entryY=0;entryDx=0;entryDy=0;" edge="1" source="bqFwXBlh8Nr7cZk0w_HN-18" parent="1" target="bqFwXBlh8Nr7cZk0w_HN-1">
          <mxGeometry width="50" height="50" relative="1" as="geometry">
            <mxPoint x="1102" y="365" as="sourcePoint" />
            <mxPoint x="822" y="345" as="targetPoint" />
          </mxGeometry>
        </mxCell>
        <mxCell id="bqFwXBlh8Nr7cZk0w_HN-18" value="Email" style="ellipse;whiteSpace=wrap;html=1;" vertex="1" parent="1">
          <mxGeometry x="722" y="160" width="80" height="40" as="geometry" />
        </mxCell>
        <mxCell id="bqFwXBlh8Nr7cZk0w_HN-19" value="Phone" style="ellipse;whiteSpace=wrap;html=1;" vertex="1" parent="1">
          <mxGeometry x="822" y="190" width="80" height="40" as="geometry" />
        </mxCell>
        <mxCell id="bqFwXBlh8Nr7cZk0w_HN-20" value="" style="endArrow=none;html=1;rounded=0;exitX=0.5;exitY=1;exitDx=0;exitDy=0;entryX=0.75;entryY=0;entryDx=0;entryDy=0;" edge="1" source="bqFwXBlh8Nr7cZk0w_HN-19" parent="1" target="bqFwXBlh8Nr7cZk0w_HN-1">
          <mxGeometry width="50" height="50" relative="1" as="geometry">
            <mxPoint x="1212" y="360" as="sourcePoint" />
            <mxPoint x="932" y="340" as="targetPoint" />
          </mxGeometry>
        </mxCell>
        <mxCell id="bqFwXBlh8Nr7cZk0w_HN-21" value="Verified" style="ellipse;whiteSpace=wrap;html=1;" vertex="1" parent="1">
          <mxGeometry x="988" y="344" width="80" height="40" as="geometry" />
        </mxCell>
        <mxCell id="bqFwXBlh8Nr7cZk0w_HN-22" value="" style="endArrow=none;html=1;rounded=0;exitX=0;exitY=0.5;exitDx=0;exitDy=0;entryX=1;entryY=0.5;entryDx=0;entryDy=0;" edge="1" source="bqFwXBlh8Nr7cZk0w_HN-21" parent="1" target="bqFwXBlh8Nr7cZk0w_HN-1">
          <mxGeometry width="50" height="50" relative="1" as="geometry">
            <mxPoint x="1162" y="560" as="sourcePoint" />
            <mxPoint x="812" y="430" as="targetPoint" />
          </mxGeometry>
        </mxCell>
        <mxCell id="bqFwXBlh8Nr7cZk0w_HN-723" value="Can Create Multiple" style="rhombus;whiteSpace=wrap;html=1;" vertex="1" parent="1">
          <mxGeometry x="714" y="528" width="96" height="96" as="geometry" />
        </mxCell>
        <mxCell id="bqFwXBlh8Nr7cZk0w_HN-724" value="" style="endArrow=none;html=1;rounded=0;entryX=0.5;entryY=1;entryDx=0;entryDy=0;exitX=0.5;exitY=0;exitDx=0;exitDy=0;" edge="1" parent="1" source="bqFwXBlh8Nr7cZk0w_HN-723" target="bqFwXBlh8Nr7cZk0w_HN-1">
          <mxGeometry width="50" height="50" relative="1" as="geometry">
            <mxPoint x="918" y="594" as="sourcePoint" />
            <mxPoint x="968" y="544" as="targetPoint" />
          </mxGeometry>
        </mxCell>
        <mxCell id="bqFwXBlh8Nr7cZk0w_HN-726" value="" style="endArrow=none;html=1;rounded=0;entryX=0.5;entryY=1;entryDx=0;entryDy=0;exitX=0.5;exitY=0;exitDx=0;exitDy=0;" edge="1" parent="1" source="bqFwXBlh8Nr7cZk0w_HN-727">
          <mxGeometry width="50" height="50" relative="1" as="geometry">
            <mxPoint x="762" y="752" as="sourcePoint" />
            <mxPoint x="762" y="624" as="targetPoint" />
          </mxGeometry>
        </mxCell>
        <mxCell id="bqFwXBlh8Nr7cZk0w_HN-727" value="Post" style="rounded=0;whiteSpace=wrap;html=1;fillColor=#e3c800;fontColor=#000000;strokeColor=#B09500;" vertex="1" parent="1">
          <mxGeometry x="702" y="756" width="120" height="60" as="geometry" />
        </mxCell>
        <mxCell id="bqFwXBlh8Nr7cZk0w_HN-728" value="Post_ID" style="ellipse;whiteSpace=wrap;html=1;fillColor=#e3c800;fontColor=#000000;strokeColor=#B09500;" vertex="1" parent="1">
          <mxGeometry x="512" y="772" width="80" height="40" as="geometry" />
        </mxCell>
        <mxCell id="bqFwXBlh8Nr7cZk0w_HN-729" value="" style="endArrow=none;html=1;rounded=0;exitX=1;exitY=0.5;exitDx=0;exitDy=0;entryX=0;entryY=0.5;entryDx=0;entryDy=0;" edge="1" parent="1" source="bqFwXBlh8Nr7cZk0w_HN-728">
          <mxGeometry width="50" height="50" relative="1" as="geometry">
            <mxPoint x="742" y="822" as="sourcePoint" />
            <mxPoint x="702" y="792" as="targetPoint" />
          </mxGeometry>
        </mxCell>
        <mxCell id="bqFwXBlh8Nr7cZk0w_HN-730" value="Title" style="ellipse;whiteSpace=wrap;html=1;" vertex="1" parent="1">
          <mxGeometry x="534" y="839" width="80" height="40" as="geometry" />
        </mxCell>
        <mxCell id="bqFwXBlh8Nr7cZk0w_HN-731" value="" style="endArrow=none;html=1;rounded=0;entryX=0;entryY=1;entryDx=0;entryDy=0;" edge="1" parent="1" target="bqFwXBlh8Nr7cZk0w_HN-727">
          <mxGeometry width="50" height="50" relative="1" as="geometry">
            <mxPoint x="602" y="844" as="sourcePoint" />
            <mxPoint x="686" y="840" as="targetPoint" />
          </mxGeometry>
        </mxCell>
        <mxCell id="bqFwXBlh8Nr7cZk0w_HN-732" value="Content" style="ellipse;whiteSpace=wrap;html=1;" vertex="1" parent="1">
          <mxGeometry x="622" y="871" width="80" height="40" as="geometry" />
        </mxCell>
        <mxCell id="bqFwXBlh8Nr7cZk0w_HN-733" value="" style="endArrow=none;html=1;rounded=0;entryX=0.25;entryY=1;entryDx=0;entryDy=0;exitX=1;exitY=0;exitDx=0;exitDy=0;" edge="1" parent="1" source="bqFwXBlh8Nr7cZk0w_HN-732" target="bqFwXBlh8Nr7cZk0w_HN-727">
          <mxGeometry width="50" height="50" relative="1" as="geometry">
            <mxPoint x="690" y="876" as="sourcePoint" />
            <mxPoint x="790" y="848" as="targetPoint" />
          </mxGeometry>
        </mxCell>
        <mxCell id="bqFwXBlh8Nr7cZk0w_HN-734" value="Image" style="ellipse;whiteSpace=wrap;html=1;" vertex="1" parent="1">
          <mxGeometry x="722" y="896" width="80" height="40" as="geometry" />
        </mxCell>
        <mxCell id="bqFwXBlh8Nr7cZk0w_HN-735" value="" style="endArrow=none;html=1;rounded=0;exitX=0.5;exitY=0;exitDx=0;exitDy=0;entryX=0.5;entryY=1;entryDx=0;entryDy=0;" edge="1" source="bqFwXBlh8Nr7cZk0w_HN-734" parent="1" target="bqFwXBlh8Nr7cZk0w_HN-727">
          <mxGeometry width="50" height="50" relative="1" as="geometry">
            <mxPoint x="790" y="876" as="sourcePoint" />
            <mxPoint x="762" y="836" as="targetPoint" />
          </mxGeometry>
        </mxCell>
        <mxCell id="bqFwXBlh8Nr7cZk0w_HN-736" value="User_ID" style="ellipse;whiteSpace=wrap;html=1;" vertex="1" parent="1">
          <mxGeometry x="814" y="867" width="80" height="40" as="geometry" />
        </mxCell>
        <mxCell id="bqFwXBlh8Nr7cZk0w_HN-737" value="" style="endArrow=none;html=1;rounded=0;entryX=0.75;entryY=1;entryDx=0;entryDy=0;exitX=0;exitY=0;exitDx=0;exitDy=0;" edge="1" parent="1" source="bqFwXBlh8Nr7cZk0w_HN-736" target="bqFwXBlh8Nr7cZk0w_HN-727">
          <mxGeometry width="50" height="50" relative="1" as="geometry">
            <mxPoint x="882" y="872" as="sourcePoint" />
            <mxPoint x="924" y="812" as="targetPoint" />
          </mxGeometry>
        </mxCell>
        <mxCell id="bqFwXBlh8Nr7cZk0w_HN-738" value="Category_ID" style="ellipse;whiteSpace=wrap;html=1;fillColor=#d80073;fontColor=#ffffff;strokeColor=#A50040;" vertex="1" parent="1">
          <mxGeometry x="914" y="839" width="80" height="40" as="geometry" />
        </mxCell>
        <mxCell id="bqFwXBlh8Nr7cZk0w_HN-739" value="" style="endArrow=none;html=1;rounded=0;entryX=1;entryY=1;entryDx=0;entryDy=0;exitX=0;exitY=0;exitDx=0;exitDy=0;" edge="1" parent="1" source="bqFwXBlh8Nr7cZk0w_HN-738" target="bqFwXBlh8Nr7cZk0w_HN-727">
          <mxGeometry width="50" height="50" relative="1" as="geometry">
            <mxPoint x="952" y="824" as="sourcePoint" />
            <mxPoint x="1052" y="796" as="targetPoint" />
          </mxGeometry>
        </mxCell>
        <mxCell id="bqFwXBlh8Nr7cZk0w_HN-740" value="Liked_Posts" style="ellipse;whiteSpace=wrap;html=1;" vertex="1" parent="1">
          <mxGeometry x="988" y="396" width="80" height="40" as="geometry" />
        </mxCell>
        <mxCell id="bqFwXBlh8Nr7cZk0w_HN-741" value="" style="endArrow=none;html=1;rounded=0;exitX=0;exitY=0;exitDx=0;exitDy=0;entryX=1;entryY=0.75;entryDx=0;entryDy=0;" edge="1" source="bqFwXBlh8Nr7cZk0w_HN-740" parent="1" target="bqFwXBlh8Nr7cZk0w_HN-1">
          <mxGeometry width="50" height="50" relative="1" as="geometry">
            <mxPoint x="1146" y="615" as="sourcePoint" />
            <mxPoint x="844" y="388" as="targetPoint" />
          </mxGeometry>
        </mxCell>
        <mxCell id="bqFwXBlh8Nr7cZk0w_HN-742" value="Liked_By" style="ellipse;whiteSpace=wrap;html=1;" vertex="1" parent="1">
          <mxGeometry x="922" y="784" width="80" height="40" as="geometry" />
        </mxCell>
        <mxCell id="bqFwXBlh8Nr7cZk0w_HN-743" value="" style="endArrow=none;html=1;rounded=0;exitX=0;exitY=1;exitDx=0;exitDy=0;entryX=1;entryY=0.75;entryDx=0;entryDy=0;" edge="1" parent="1" source="bqFwXBlh8Nr7cZk0w_HN-742" target="bqFwXBlh8Nr7cZk0w_HN-727">
          <mxGeometry width="50" height="50" relative="1" as="geometry">
            <mxPoint x="1152" y="834" as="sourcePoint" />
            <mxPoint x="1112" y="804" as="targetPoint" />
          </mxGeometry>
        </mxCell>
        <mxCell id="bqFwXBlh8Nr7cZk0w_HN-745" value="Can Have Multiple" style="rhombus;whiteSpace=wrap;html=1;" vertex="1" parent="1">
          <mxGeometry x="912" y="680" width="80" height="80" as="geometry" />
        </mxCell>
        <mxCell id="bqFwXBlh8Nr7cZk0w_HN-746" value="Can Do" style="rhombus;whiteSpace=wrap;html=1;" vertex="1" parent="1">
          <mxGeometry x="894" y="536" width="80" height="80" as="geometry" />
        </mxCell>
        <mxCell id="bqFwXBlh8Nr7cZk0w_HN-747" value="1" style="text;html=1;align=center;verticalAlign=middle;resizable=0;points=[];autosize=1;strokeColor=none;fillColor=none;" vertex="1" parent="1">
          <mxGeometry x="716" y="471" width="28" height="28" as="geometry" />
        </mxCell>
        <mxCell id="bqFwXBlh8Nr7cZk0w_HN-748" value="n" style="text;html=1;align=center;verticalAlign=middle;resizable=0;points=[];autosize=1;strokeColor=none;fillColor=none;" vertex="1" parent="1">
          <mxGeometry x="716" y="683" width="28" height="28" as="geometry" />
        </mxCell>
        <mxCell id="bqFwXBlh8Nr7cZk0w_HN-749" value="" style="endArrow=none;html=1;rounded=0;entryX=0.75;entryY=1;entryDx=0;entryDy=0;" edge="1" parent="1" source="bqFwXBlh8Nr7cZk0w_HN-746" target="bqFwXBlh8Nr7cZk0w_HN-1">
          <mxGeometry width="50" height="50" relative="1" as="geometry">
            <mxPoint x="918" y="702" as="sourcePoint" />
            <mxPoint x="968" y="652" as="targetPoint" />
          </mxGeometry>
        </mxCell>
        <mxCell id="bqFwXBlh8Nr7cZk0w_HN-751" value="" style="endArrow=none;html=1;rounded=0;exitX=1;exitY=0;exitDx=0;exitDy=0;entryX=0;entryY=0.5;entryDx=0;entryDy=0;" edge="1" parent="1" source="bqFwXBlh8Nr7cZk0w_HN-727" target="bqFwXBlh8Nr7cZk0w_HN-745">
          <mxGeometry width="50" height="50" relative="1" as="geometry">
            <mxPoint x="918" y="602" as="sourcePoint" />
            <mxPoint x="968" y="552" as="targetPoint" />
          </mxGeometry>
        </mxCell>
        <mxCell id="bqFwXBlh8Nr7cZk0w_HN-752" value="1" style="text;html=1;align=center;verticalAlign=middle;resizable=0;points=[];autosize=1;strokeColor=none;fillColor=none;" vertex="1" parent="1">
          <mxGeometry x="866" y="476" width="28" height="28" as="geometry" />
        </mxCell>
        <mxCell id="bqFwXBlh8Nr7cZk0w_HN-753" value="1" style="text;html=1;align=center;verticalAlign=middle;resizable=0;points=[];autosize=1;strokeColor=none;fillColor=none;" vertex="1" parent="1">
          <mxGeometry x="836" y="715" width="28" height="28" as="geometry" />
        </mxCell>
        <mxCell id="bqFwXBlh8Nr7cZk0w_HN-754" value="Comments" style="rounded=0;whiteSpace=wrap;html=1;fillColor=#60a917;fontColor=#ffffff;strokeColor=#2D7600;" vertex="1" parent="1">
          <mxGeometry x="1138" y="596" width="120" height="60" as="geometry" />
        </mxCell>
        <mxCell id="bqFwXBlh8Nr7cZk0w_HN-755" value="Comment_ID" style="ellipse;whiteSpace=wrap;html=1;fillColor=#60a917;fontColor=#ffffff;strokeColor=#2D7600;" vertex="1" parent="1">
          <mxGeometry x="1378" y="606" width="80" height="40" as="geometry" />
        </mxCell>
        <mxCell id="bqFwXBlh8Nr7cZk0w_HN-756" value="" style="endArrow=none;html=1;rounded=0;exitX=0;exitY=0.5;exitDx=0;exitDy=0;entryX=1;entryY=0.5;entryDx=0;entryDy=0;" edge="1" source="bqFwXBlh8Nr7cZk0w_HN-755" parent="1">
          <mxGeometry width="50" height="50" relative="1" as="geometry">
            <mxPoint x="1608" y="756" as="sourcePoint" />
            <mxPoint x="1258" y="626" as="targetPoint" />
          </mxGeometry>
        </mxCell>
        <mxCell id="bqFwXBlh8Nr7cZk0w_HN-757" value="Comment" style="ellipse;whiteSpace=wrap;html=1;" vertex="1" parent="1">
          <mxGeometry x="1362" y="536" width="80" height="40" as="geometry" />
        </mxCell>
        <mxCell id="bqFwXBlh8Nr7cZk0w_HN-758" value="" style="endArrow=none;html=1;rounded=0;exitX=0;exitY=1;exitDx=0;exitDy=0;entryX=1;entryY=0;entryDx=0;entryDy=0;" edge="1" source="bqFwXBlh8Nr7cZk0w_HN-757" parent="1" target="bqFwXBlh8Nr7cZk0w_HN-754">
          <mxGeometry width="50" height="50" relative="1" as="geometry">
            <mxPoint x="1556" y="706" as="sourcePoint" />
            <mxPoint x="1206" y="576" as="targetPoint" />
          </mxGeometry>
        </mxCell>
        <mxCell id="bqFwXBlh8Nr7cZk0w_HN-759" value="User_ID" style="ellipse;whiteSpace=wrap;html=1;fillColor=#1ba1e2;fontColor=#ffffff;strokeColor=#006EAF;" vertex="1" parent="1">
          <mxGeometry x="1266" y="496" width="80" height="40" as="geometry" />
        </mxCell>
        <mxCell id="bqFwXBlh8Nr7cZk0w_HN-760" value="" style="endArrow=none;html=1;rounded=0;exitX=0;exitY=1;exitDx=0;exitDy=0;entryX=0.75;entryY=0;entryDx=0;entryDy=0;" edge="1" source="bqFwXBlh8Nr7cZk0w_HN-759" parent="1" target="bqFwXBlh8Nr7cZk0w_HN-754">
          <mxGeometry width="50" height="50" relative="1" as="geometry">
            <mxPoint x="1460" y="666" as="sourcePoint" />
            <mxPoint x="1162" y="556" as="targetPoint" />
          </mxGeometry>
        </mxCell>
        <mxCell id="bqFwXBlh8Nr7cZk0w_HN-761" value="Post_ID" style="ellipse;whiteSpace=wrap;html=1;fillColor=#e3c800;fontColor=#000000;strokeColor=#B09500;" vertex="1" parent="1">
          <mxGeometry x="1362" y="671" width="80" height="40" as="geometry" />
        </mxCell>
        <mxCell id="bqFwXBlh8Nr7cZk0w_HN-762" value="" style="endArrow=none;html=1;rounded=0;exitX=0;exitY=0;exitDx=0;exitDy=0;entryX=1;entryY=0.75;entryDx=0;entryDy=0;" edge="1" source="bqFwXBlh8Nr7cZk0w_HN-761" parent="1" target="bqFwXBlh8Nr7cZk0w_HN-754">
          <mxGeometry width="50" height="50" relative="1" as="geometry">
            <mxPoint x="1592" y="821" as="sourcePoint" />
            <mxPoint x="1242" y="691" as="targetPoint" />
          </mxGeometry>
        </mxCell>
        <mxCell id="bqFwXBlh8Nr7cZk0w_HN-763" value="" style="endArrow=none;html=1;rounded=0;exitX=1;exitY=1;exitDx=0;exitDy=0;entryX=0;entryY=0;entryDx=0;entryDy=0;" edge="1" parent="1" source="bqFwXBlh8Nr7cZk0w_HN-746" target="bqFwXBlh8Nr7cZk0w_HN-754">
          <mxGeometry width="50" height="50" relative="1" as="geometry">
            <mxPoint x="858" y="550" as="sourcePoint" />
            <mxPoint x="908" y="500" as="targetPoint" />
          </mxGeometry>
        </mxCell>
        <mxCell id="bqFwXBlh8Nr7cZk0w_HN-764" value="n" style="text;html=1;align=center;verticalAlign=middle;resizable=0;points=[];autosize=1;strokeColor=none;fillColor=none;" vertex="1" parent="1">
          <mxGeometry x="1036" y="547" width="28" height="28" as="geometry" />
        </mxCell>
        <mxCell id="bqFwXBlh8Nr7cZk0w_HN-765" value="" style="endArrow=none;html=1;rounded=0;exitX=1;exitY=0.5;exitDx=0;exitDy=0;entryX=0;entryY=1;entryDx=0;entryDy=0;" edge="1" parent="1" source="bqFwXBlh8Nr7cZk0w_HN-745" target="bqFwXBlh8Nr7cZk0w_HN-754">
          <mxGeometry width="50" height="50" relative="1" as="geometry">
            <mxPoint x="858" y="550" as="sourcePoint" />
            <mxPoint x="908" y="500" as="targetPoint" />
          </mxGeometry>
        </mxCell>
        <mxCell id="bqFwXBlh8Nr7cZk0w_HN-766" value="n" style="text;html=1;align=center;verticalAlign=middle;resizable=0;points=[];autosize=1;strokeColor=none;fillColor=none;" vertex="1" parent="1">
          <mxGeometry x="1040" y="695" width="28" height="28" as="geometry" />
        </mxCell>
        <mxCell id="bqFwXBlh8Nr7cZk0w_HN-767" value="Category" style="rounded=0;whiteSpace=wrap;html=1;fillColor=#d80073;fontColor=#ffffff;strokeColor=#A50040;" vertex="1" parent="1">
          <mxGeometry x="288" y="606" width="120" height="60" as="geometry" />
        </mxCell>
        <mxCell id="bqFwXBlh8Nr7cZk0w_HN-768" value="Category_ID" style="ellipse;whiteSpace=wrap;html=1;fillColor=#d80073;fontColor=#ffffff;strokeColor=#A50040;" vertex="1" parent="1">
          <mxGeometry x="140" y="616" width="80" height="40" as="geometry" />
        </mxCell>
        <mxCell id="bqFwXBlh8Nr7cZk0w_HN-769" value="" style="endArrow=none;html=1;rounded=0;exitX=1;exitY=0.5;exitDx=0;exitDy=0;entryX=0;entryY=0.5;entryDx=0;entryDy=0;" edge="1" source="bqFwXBlh8Nr7cZk0w_HN-768" parent="1" target="bqFwXBlh8Nr7cZk0w_HN-767">
          <mxGeometry width="50" height="50" relative="1" as="geometry">
            <mxPoint x="444" y="616" as="sourcePoint" />
            <mxPoint x="368" y="592" as="targetPoint" />
          </mxGeometry>
        </mxCell>
        <mxCell id="bqFwXBlh8Nr7cZk0w_HN-770" value="Title" style="ellipse;whiteSpace=wrap;html=1;" vertex="1" parent="1">
          <mxGeometry x="160" y="700" width="80" height="40" as="geometry" />
        </mxCell>
        <mxCell id="bqFwXBlh8Nr7cZk0w_HN-771" value="" style="endArrow=none;html=1;rounded=0;exitX=1;exitY=0;exitDx=0;exitDy=0;entryX=0;entryY=1;entryDx=0;entryDy=0;" edge="1" source="bqFwXBlh8Nr7cZk0w_HN-770" parent="1" target="bqFwXBlh8Nr7cZk0w_HN-767">
          <mxGeometry width="50" height="50" relative="1" as="geometry">
            <mxPoint x="532" y="563.5" as="sourcePoint" />
            <mxPoint x="402" y="548.5" as="targetPoint" />
          </mxGeometry>
        </mxCell>
        <mxCell id="bqFwXBlh8Nr7cZk0w_HN-772" value="Can Have Multiple" style="rhombus;whiteSpace=wrap;html=1;" vertex="1" parent="1">
          <mxGeometry x="468" y="652" width="99" height="99" as="geometry" />
        </mxCell>
        <mxCell id="bqFwXBlh8Nr7cZk0w_HN-773" value="" style="endArrow=none;html=1;rounded=0;entryX=1;entryY=1;entryDx=0;entryDy=0;exitX=0;exitY=0;exitDx=0;exitDy=0;" edge="1" parent="1" source="bqFwXBlh8Nr7cZk0w_HN-772" target="bqFwXBlh8Nr7cZk0w_HN-767">
          <mxGeometry width="50" height="50" relative="1" as="geometry">
            <mxPoint x="772" y="570" as="sourcePoint" />
            <mxPoint x="822" y="520" as="targetPoint" />
          </mxGeometry>
        </mxCell>
        <mxCell id="bqFwXBlh8Nr7cZk0w_HN-774" value="" style="endArrow=none;html=1;rounded=0;entryX=1;entryY=1;entryDx=0;entryDy=0;exitX=0;exitY=0;exitDx=0;exitDy=0;" edge="1" parent="1" source="bqFwXBlh8Nr7cZk0w_HN-727" target="bqFwXBlh8Nr7cZk0w_HN-772">
          <mxGeometry width="50" height="50" relative="1" as="geometry">
            <mxPoint x="772" y="570" as="sourcePoint" />
            <mxPoint x="822" y="520" as="targetPoint" />
          </mxGeometry>
        </mxCell>
        <mxCell id="bqFwXBlh8Nr7cZk0w_HN-775" value="1 or n" style="text;html=1;align=center;verticalAlign=middle;resizable=0;points=[];autosize=1;strokeColor=none;fillColor=none;" vertex="1" parent="1">
          <mxGeometry x="428" y="636" width="52" height="28" as="geometry" />
        </mxCell>
        <mxCell id="bqFwXBlh8Nr7cZk0w_HN-776" value="n" style="text;html=1;align=center;verticalAlign=middle;resizable=0;points=[];autosize=1;strokeColor=none;fillColor=none;" vertex="1" parent="1">
          <mxGeometry x="642" y="723" width="28" height="28" as="geometry" />
        </mxCell>
        <mxCell id="bqFwXBlh8Nr7cZk0w_HN-778" value="Role" style="rounded=0;whiteSpace=wrap;html=1;fillColor=#e51400;fontColor=#ffffff;strokeColor=#B20000;" vertex="1" parent="1">
          <mxGeometry x="376" y="471" width="120" height="60" as="geometry" />
        </mxCell>
        <mxCell id="bqFwXBlh8Nr7cZk0w_HN-780" value="" style="endArrow=none;html=1;rounded=0;exitX=1;exitY=0.5;exitDx=0;exitDy=0;entryX=0;entryY=0.5;entryDx=0;entryDy=0;" edge="1" source="bqFwXBlh8Nr7cZk0w_HN-781" parent="1" target="bqFwXBlh8Nr7cZk0w_HN-778">
          <mxGeometry width="50" height="50" relative="1" as="geometry">
            <mxPoint x="466" y="531" as="sourcePoint" />
            <mxPoint x="376" y="508" as="targetPoint" />
          </mxGeometry>
        </mxCell>
        <mxCell id="bqFwXBlh8Nr7cZk0w_HN-781" value="Role_ID" style="ellipse;whiteSpace=wrap;html=1;fillColor=#e51400;fontColor=#ffffff;strokeColor=#B20000;" vertex="1" parent="1">
          <mxGeometry x="236" y="481" width="80" height="40" as="geometry" />
        </mxCell>
        <mxCell id="bqFwXBlh8Nr7cZk0w_HN-782" value="Role_name" style="ellipse;whiteSpace=wrap;html=1;" vertex="1" parent="1">
          <mxGeometry x="232" y="406" width="80" height="40" as="geometry" />
        </mxCell>
        <mxCell id="bqFwXBlh8Nr7cZk0w_HN-783" value="" style="endArrow=none;html=1;rounded=0;exitX=1;exitY=1;exitDx=0;exitDy=0;entryX=0;entryY=0;entryDx=0;entryDy=0;" edge="1" source="bqFwXBlh8Nr7cZk0w_HN-782" parent="1" target="bqFwXBlh8Nr7cZk0w_HN-778">
          <mxGeometry width="50" height="50" relative="1" as="geometry">
            <mxPoint x="552" y="486" as="sourcePoint" />
            <mxPoint x="392" y="448" as="targetPoint" />
          </mxGeometry>
        </mxCell>
        <mxCell id="bqFwXBlh8Nr7cZk0w_HN-784" value="Can &lt;br&gt;assigned&lt;br&gt;&amp;nbsp;to" style="rhombus;whiteSpace=wrap;html=1;" vertex="1" parent="1">
          <mxGeometry x="568" y="424" width="80" height="80" as="geometry" />
        </mxCell>
        <mxCell id="bqFwXBlh8Nr7cZk0w_HN-785" value="" style="endArrow=none;html=1;rounded=0;entryX=0;entryY=1;entryDx=0;entryDy=0;exitX=1;exitY=0.5;exitDx=0;exitDy=0;" edge="1" parent="1" source="bqFwXBlh8Nr7cZk0w_HN-778" target="bqFwXBlh8Nr7cZk0w_HN-784">
          <mxGeometry width="50" height="50" relative="1" as="geometry">
            <mxPoint x="772" y="570" as="sourcePoint" />
            <mxPoint x="822" y="520" as="targetPoint" />
          </mxGeometry>
        </mxCell>
        <mxCell id="bqFwXBlh8Nr7cZk0w_HN-786" value="" style="endArrow=none;html=1;rounded=0;entryX=0;entryY=1;entryDx=0;entryDy=0;exitX=1;exitY=0;exitDx=0;exitDy=0;" edge="1" parent="1" source="bqFwXBlh8Nr7cZk0w_HN-784" target="bqFwXBlh8Nr7cZk0w_HN-1">
          <mxGeometry width="50" height="50" relative="1" as="geometry">
            <mxPoint x="772" y="570" as="sourcePoint" />
            <mxPoint x="822" y="520" as="targetPoint" />
          </mxGeometry>
        </mxCell>
        <mxCell id="bqFwXBlh8Nr7cZk0w_HN-787" value="1" style="text;html=1;align=center;verticalAlign=middle;resizable=0;points=[];autosize=1;strokeColor=none;fillColor=none;" vertex="1" parent="1">
          <mxGeometry x="510" y="463" width="28" height="28" as="geometry" />
        </mxCell>
        <mxCell id="bqFwXBlh8Nr7cZk0w_HN-788" value="n" style="text;html=1;align=center;verticalAlign=middle;resizable=0;points=[];autosize=1;strokeColor=none;fillColor=none;" vertex="1" parent="1">
          <mxGeometry x="654" y="419" width="28" height="28" as="geometry" />
        </mxCell>
        <mxCell id="bqFwXBlh8Nr7cZk0w_HN-789" value="Role_ID" style="ellipse;whiteSpace=wrap;html=1;fillColor=#e51400;fontColor=#ffffff;strokeColor=#B20000;" vertex="1" parent="1">
          <mxGeometry x="972" y="451" width="80" height="40" as="geometry" />
        </mxCell>
        <mxCell id="bqFwXBlh8Nr7cZk0w_HN-790" value="" style="endArrow=none;html=1;rounded=0;exitX=0;exitY=0.5;exitDx=0;exitDy=0;entryX=1;entryY=1;entryDx=0;entryDy=0;" edge="1" source="bqFwXBlh8Nr7cZk0w_HN-789" parent="1" target="bqFwXBlh8Nr7cZk0w_HN-1">
          <mxGeometry width="50" height="50" relative="1" as="geometry">
            <mxPoint x="1134" y="660" as="sourcePoint" />
            <mxPoint x="810" y="430" as="targetPoint" />
          </mxGeometry>
        </mxCell>
      </root>
    </mxGraphModel>
  </diagram>
</mxfile>
